# xmcd CD database file
#
# Track frame offsets:
#	150
#	17793
#	33613
#	55742
#	69238
#	84286
#	104986
#	120394
#	139458
#	153181
#	170217
#	195208
#
# Disc length: 3266 seconds
#
# Revision: 2
# Processed by: cddbd v1.5.2PL0 Copyright (c) Steve Scherf et al.
# Submitted via: CDex 1.51
#
DISCID=9f0cc00c
DTITLE=Daniel Balthasar - Everything is Temporary
DYEAR=2013
DGENRE=Jazz
TTITLE0=Everything is Temporary
TTITLE1=Away
TTITLE2=Say what's on your mind
TTITLE3=Change
TTITLE4=To the Start
TTITLE5=I knew this ship was sinking from the start
TTITLE6=Parallel Universe
TTITLE7=Another Word
TTITLE8=Reconcile
TTITLE9=Dealing in Absolutes
TTITLE10=You are missing
TTITLE11=Everything is temporary data track
EXTD=YEAR: 2013
EXTT0=
EXTT1=
EXTT2=
EXTT3=
EXTT4=
EXTT5=
EXTT6=
EXTT7=
EXTT8=
EXTT9=
EXTT10=
EXTT11=
PLAYORDER=
